<svg id="Ebene_1" data-name="Ebene 1" xmlns="http://www.w3.org/2000/svg" xmlns:xlink="http://www.w3.org/1999/xlink" viewBox="0 0 759.329 138.812">
  <defs>
    <style>
      .cls-1 {
        fill: url(#Blanc_Noir);
      }

      .cls-2 {
        fill: url(#linear-gradient);
      }

      .cls-3 {
        fill: #dc000c;
      }
    </style>
    <linearGradient id="Blanc_Noir" data-name="Blanc, Noir" x1="127.353" y1="167.264" x2="127.353" y2="-0.12" gradientUnits="userSpaceOnUse">
      <stop offset="0" stop-color="#fff"/>
      <stop offset="1"/>
    </linearGradient>
    <linearGradient id="linear-gradient" x1="127.344" y1="-21.097" x2="127.344" y2="143.017" gradientUnits="userSpaceOnUse">
      <stop offset="0" stop-color="#9a9b9b"/>
      <stop offset="0.038" stop-color="#a8a9a9"/>
      <stop offset="0.173" stop-color="#d7d7d7"/>
      <stop offset="0.278" stop-color="#f4f4f4"/>
      <stop offset="0.337" stop-color="#fff"/>
      <stop offset="0.966" stop-color="#261f1d"/>
      <stop offset="1" stop-color="#1a1311"/>
    </linearGradient>
  </defs>
  <title>e0ddfdfc-f13f-4ef2-be8f-2a8f12df9bf3</title>
  <g>
    <g>
      <path class="cls-1" d="M242.277,69.406c0-33.685-51.635-61.17-114.908-61.17-63.328,0-114.94,27.484-114.94,61.17,0,17.321,13.647,33.007,35.536,44.157v3.343c11.253,5.73,24.685,10.122,39.564,13.054v-3.173a207.193,207.193,0,0,0,39.84,3.786,199.1,199.1,0,0,0,52.939-6.9,87.947,87.947,0,0,0,34.63-14.751C231.967,98.247,242.277,84.438,242.277,69.406Zm-222.851,0c0-30.937,48.483-56.146,107.943-56.146,59.413,0,107.892,25.209,107.892,56.146,0,17.361-15.259,32.913-39.177,43.23a100.306,100.306,0,0,1-11.427.659c-35.142,0-62.733-17.636-62.733-39.384s27.59-39.377,62.733-39.377a99.88,99.88,0,0,1,21.24,2.259c-12.859-6.74-29.283-10.954-46.959-10.954-33.447,0-61.614,14.586-71.41,34.489V25.655C71.937,28.808,58.356,33.77,47.965,39.943v67.429C30.272,97.373,19.426,84.025,19.426,69.406Zm68.1,52.175v-30.6C95.9,108,118.2,121.249,145.389,124.754c-5.872.515-11.888,0.8-18.02,0.8A197.615,197.615,0,0,1,87.529,121.581Z"/>
      <path class="cls-2" d="M127.369,0C57.205,0,0,31.189,0,69.406s57.205,69.405,127.369,69.405c70.111,0,127.32-31.19,127.32-69.405S197.479,0,127.369,0ZM85.7,126.408l0-48.15c2,25.487,34.555,45.756,75.249,45.756a127.73,127.73,0,0,0,26.5-2.518c-17.5,5.764-38.09,9.077-60.081,9.077A205.7,205.7,0,0,1,85.7,126.408ZM222.673,103.5c-11.367,7.213-26.99,11.237-44.138,11.237-34.819,0-61.174-17.963-61.174-40.738s26.465-40.556,61.3-40.556c9.689,0,18.849.753,27.048,3.293a107.476,107.476,0,0,0-44.757-9.659c-40.7,0-73.279,20.67-75.249,46.2L85.663,27.95C71.82,30.956,60.736,34.83,51.072,40.387v74.69c-23.677-11.2-38.643-27.545-38.643-45.671,0-33.685,51.612-61.17,114.94-61.17,63.273,0,114.908,27.484,114.908,61.17C242.277,82.022,235.036,93.75,222.673,103.5Z"/>
    </g>
    <g>
      <polygon class="cls-3" points="539.99 31.529 530.217 31.529 513.172 79.322 496.126 31.529 487.617 31.529 478.153 31.529 466.673 31.529 466.673 104.523 487.617 104.523 487.617 58.076 504.182 104.523 522.155 104.523 539.99 54.512 539.99 104.523 560.94 104.523 560.94 31.529 548.187 31.529 539.99 31.529"/>
      <polygon class="cls-3" points="419.324 56.256 400.606 31.539 377.427 31.539 408.85 73.237 408.85 104.598 429.797 104.598 429.797 73.237 461.41 31.525 438.083 31.525 419.324 56.256"/>
      <path class="cls-3" d="M712.567,89.434c-13.956,0-25.27-9.5-25.27-21.221s11.315-21.228,25.27-21.228,25.267,9.505,25.267,21.228-11.308,21.221-25.267,21.221m0-60.505c-25.823,0-46.766,17.589-46.766,39.284s20.944,39.277,46.766,39.277S759.329,89.9,759.329,68.213,738.4,28.929,712.567,28.929"/>
      <path class="cls-3" d="M615.3,46.8c9.594,0,17.942,4.5,22.221,11.112h22.966c-5.312-16.792-23.525-29.164-45.186-29.164-25.826,0-46.763,17.581-46.763,39.277S589.469,107.3,615.3,107.3c21.664,0,39.874-12.376,45.186-29.168H637.516c-4.279,6.621-12.626,11.112-22.221,11.112-13.956,0-25.267-9.5-25.267-21.221S601.34,46.8,615.3,46.8"/>
      <polygon class="cls-3" points="372.403 31.529 340.98 31.529 309.622 54.979 309.622 31.529 288.658 31.529 288.658 104.523 309.622 104.523 309.622 78.474 324.583 67.286 346.113 104.523 372.603 104.523 343.085 53.455 372.403 31.529"/>
    </g>
  </g>
</svg>
