<?xml version="1.0" encoding="utf-8"?>
<!-- Generator: Adobe Illustrator 24.1.0, SVG Export Plug-In . SVG Version: 6.00 Build 0)  -->
<svg version="1.1" id="Ebene_1" xmlns="http://www.w3.org/2000/svg" xmlns:xlink="http://www.w3.org/1999/xlink" x="0px" y="0px"
	 viewBox="0 0 222.6 67" style="enable-background:new 0 0 222.6 67;" xml:space="preserve">
<g>
	<g>
		<g>
			<path style="fill:#D7282F;" d="M197.6,10.8H25.1c-4,0-11.4,2.4-11.4,11.4v1.5c0,4,2.4,11.4,11.4,11.4h172.5
				c4,0,11.4-2.4,11.4-11.4v-1.5C209,18.3,206.6,10.8,197.6,10.8z"/>
		</g>
		<g>
			<path style="fill:#FFFFFF;" d="M198,18c-0.9-0.9-2-1.5-3.3-1.5h-15.8v13.2h4.8v-2.5h10.7c1.4,0,2.6-0.5,3.6-1.6
				c1-1,1.6-2.3,1.6-3.8C199.6,20.3,199,19,198,18z M194.8,23c-0.3,0.3-0.7,0.5-1.2,0.5h-10v-3.4h9.7c0.1,0,0.2,0,0.2,0
				c0.1,0,0.2,0,0.3,0c0.4,0.1,0.7,0.2,0.9,0.5c0.3,0.3,0.5,0.7,0.5,1.2C195.3,22.2,195.1,22.6,194.8,23z M133.8,16.4l-9.9,13.2h4.9
				l1.5-2h13.1l1.5,2h4.9L140,16.4H133.8z M133,23.9l2.9-3.9h2l2.9,3.9H133z M168.7,16.4h-15.8v13.2h4.8v-2.5h10.7
				c1.4,0,2.6-0.6,3.6-1.6c1-1,1.6-2.3,1.6-3.8c0-1.5-0.5-2.7-1.6-3.8C171,17,169.9,16.5,168.7,16.4z M168.8,23
				c-0.3,0.3-0.7,0.5-1.2,0.5h-10v-3.4h9.7c0.1,0,0.2,0,0.2,0c0.1,0,0.2,0,0.3,0c0.4,0.1,0.7,0.2,0.9,0.5c0.3,0.3,0.5,0.7,0.5,1.2
				C169.3,22.2,169.1,22.6,168.8,23z M90.5,16.4h4.7v13.2h-4.7l-11.1-7.9v7.9h-4.7V16.4h4.7l11.1,7.9V16.4z M115.9,16.4h-15.7v13.2
				h15.6c1.8,0,3.3-0.7,4.5-1.9c1.3-1.3,1.9-2.8,1.9-4.6s-0.6-3.4-1.9-4.7C119.1,17.1,117.7,16.5,115.9,16.4z M117.2,25.1
				c-0.5,0.5-1.2,0.9-2,0.9H105v-5.9h10.2c0.8,0,1.5,0.3,2,0.9c0.6,0.6,0.9,1.3,0.9,2.1C118.1,23.8,117.8,24.5,117.2,25.1z
				 M23.1,16.4H43v3.6L30.6,26H43v3.6H23.1V26l12.4-5.9H23.1V16.4z M69.3,16.4l0,9.5v0c0,1-0.4,1.8-1,2.5c-0.7,0.7-1.6,1.1-2.6,1.1
				H52.4c-1,0-1.8-0.4-2.6-1.1c-0.7-0.7-1-1.3-1-1.8V26l0-9.5h4.7v8.2c0,0.4,0.1,0.7,0.4,0.9c0.2,0.2,0.5,0.4,0.9,0.4h0.1h8.4
				c0.4,0,0.7-0.1,0.9-0.4c0.2-0.2,0.4-0.5,0.4-0.9v-8.3H69.3z M61,22.4h-3.8v-5.9H61V22.4z"/>
		</g>
	</g>
	<g>
		<path style="fill:#D7282F;" d="M60.3,45.5h2.5l2.8,4.4l2.8-4.4h2.5V56h-2.3v-6.9l-3,4.5h-0.1l-2.9-4.4V56h-2.3V45.5z"/>
		<path style="fill:#D7282F;" d="M74.3,50.8L74.3,50.8c0-3,2.4-5.5,5.6-5.5c3.2,0,5.6,2.4,5.6,5.4v0c0,3-2.4,5.4-5.6,5.4
			S74.3,53.8,74.3,50.8z M83.1,50.8L83.1,50.8c0-1.8-1.3-3.3-3.2-3.3c-1.9,0-3.1,1.5-3.1,3.3v0c0,1.8,1.3,3.3,3.2,3.3
			C81.8,54,83.1,52.6,83.1,50.8z"/>
		<path style="fill:#D7282F;" d="M91,47.6h-3.2v-2.1h8.7v2.1h-3.2V56H91V47.6z"/>
		<path style="fill:#D7282F;" d="M98.9,50.8L98.9,50.8c0-3,2.4-5.5,5.6-5.5c3.2,0,5.6,2.4,5.6,5.4v0c0,3-2.4,5.4-5.6,5.4
			C101.2,56.2,98.9,53.8,98.9,50.8z M107.6,50.8L107.6,50.8c0-1.8-1.3-3.3-3.2-3.3c-1.9,0-3.2,1.5-3.2,3.3v0c0,1.8,1.3,3.3,3.2,3.3
			C106.4,54,107.6,52.6,107.6,50.8z"/>
		<path style="fill:#D7282F;" d="M113.6,45.5h4.8c1.3,0,2.4,0.4,3.1,1.1c0.6,0.6,0.9,1.4,0.9,2.4v0c0,1.7-0.9,2.8-2.2,3.3l2.6,3.8
			H120l-2.2-3.4h-1.8V56h-2.3V45.5z M118.3,50.6c1.1,0,1.8-0.6,1.8-1.5v0c0-1-0.7-1.5-1.8-1.5h-2.3v3H118.3z"/>
		<path style="fill:#D7282F;" d="M126,45.5h4.8c1.3,0,2.4,0.4,3.1,1.1c0.6,0.6,0.9,1.4,0.9,2.4v0c0,1.7-0.9,2.8-2.2,3.3L135,56h-2.7
			l-2.2-3.4h-1.8V56H126V45.5z M130.6,50.6c1.1,0,1.8-0.6,1.8-1.5v0c0-1-0.7-1.5-1.8-1.5h-2.3v3H130.6z"/>
		<path style="fill:#D7282F;" d="M141.9,45.4h2.1l4.5,10.6h-2.4l-1-2.4h-4.4l-1,2.4h-2.4L141.9,45.4z M144.3,51.6l-1.4-3.4l-1.4,3.4
			H144.3z"/>
		<path style="fill:#D7282F;" d="M151.7,45.5h4.1c3.3,0,5.6,2.3,5.6,5.2v0c0,3-2.3,5.2-5.6,5.2h-4.1V45.5z M154,47.6v6.3h1.8
			c1.9,0,3.2-1.3,3.2-3.1v0c0-1.9-1.3-3.2-3.2-3.2H154z"/>
	</g>
</g>
</svg>
